<mxfile host="Electron" agent="Mozilla/5.0 (Macintosh; Intel Mac OS X 10_15_7) AppleWebKit/537.36 (KHTML, like Gecko) draw.io/26.1.1 Chrome/132.0.6834.210 Electron/34.3.3 Safari/537.36" version="26.1.1" pages="2">
  <diagram name="meh" id="IjVAAhpSE65qdtkL1XK0">
    <mxGraphModel dx="1100" dy="864" grid="1" gridSize="10" guides="1" tooltips="1" connect="1" arrows="1" fold="1" page="1" pageScale="1" pageWidth="827" pageHeight="1169" math="0" shadow="0">
      <root>
        <mxCell id="0" />
        <mxCell id="1" parent="0" />
        <mxCell id="hH0oPLwTVgHCEB_EY1nH-1" value="" style="rounded=1;whiteSpace=wrap;html=1;arcSize=7;" parent="1" vertex="1">
          <mxGeometry x="40" y="160" width="560" height="390" as="geometry" />
        </mxCell>
        <mxCell id="hH0oPLwTVgHCEB_EY1nH-17" style="edgeStyle=orthogonalEdgeStyle;rounded=0;orthogonalLoop=1;jettySize=auto;html=1;exitX=0.5;exitY=1;exitDx=0;exitDy=0;exitPerimeter=0;entryX=0.5;entryY=0;entryDx=0;entryDy=0;endArrow=block;endFill=1;strokeColor=#00CC66;strokeWidth=5;opacity=90;" parent="1" source="hH0oPLwTVgHCEB_EY1nH-4" target="hH0oPLwTVgHCEB_EY1nH-6" edge="1">
          <mxGeometry relative="1" as="geometry" />
        </mxCell>
        <mxCell id="hH0oPLwTVgHCEB_EY1nH-6" value="Traefik" style="shape=image;verticalLabelPosition=bottom;labelBackgroundColor=default;verticalAlign=top;aspect=fixed;imageAspect=0;image=https://encrypted-tbn0.gstatic.com/images?q=tbn:ANd9GcR5TgvfyQXTfJo_XdQc6eP0GLWYev0JaMrhAQ&amp;s;" parent="1" vertex="1">
          <mxGeometry x="290" y="260" width="60" height="60" as="geometry" />
        </mxCell>
        <mxCell id="hH0oPLwTVgHCEB_EY1nH-7" value="dex sample app" style="shape=image;verticalLabelPosition=bottom;labelBackgroundColor=default;verticalAlign=top;aspect=fixed;imageAspect=0;image=https://dexidp.io/favicons/favicon.png;" parent="1" vertex="1">
          <mxGeometry x="474.99" y="447.6" width="60.01" height="58.4" as="geometry" />
        </mxCell>
        <mxCell id="hH0oPLwTVgHCEB_EY1nH-8" value="keycloak" style="shape=image;verticalLabelPosition=bottom;labelBackgroundColor=default;verticalAlign=top;aspect=fixed;imageAspect=0;image=https://upload.wikimedia.org/wikipedia/commons/2/29/Keycloak_Logo.png;" parent="1" vertex="1">
          <mxGeometry x="107" y="450" width="56" height="56" as="geometry" />
        </mxCell>
        <mxCell id="hH0oPLwTVgHCEB_EY1nH-9" value="" style="shape=image;verticalLabelPosition=bottom;labelBackgroundColor=default;verticalAlign=top;aspect=fixed;imageAspect=0;image=https://encrypted-tbn0.gstatic.com/images?q=tbn:ANd9GcTge6fN8aeHOQtq4LFhjwvb9ZB2e48eM55jcg&amp;s;" parent="1" vertex="1">
          <mxGeometry x="70" y="180" width="53.04" height="20" as="geometry" />
        </mxCell>
        <mxCell id="hH0oPLwTVgHCEB_EY1nH-15" value="&lt;font style=&quot;font-size: 80px;&quot;&gt;?&lt;/font&gt;" style="text;html=1;align=center;verticalAlign=middle;whiteSpace=wrap;rounded=0;" parent="1" vertex="1">
          <mxGeometry x="260" y="423.4" width="102.5" height="106.6" as="geometry" />
        </mxCell>
        <mxCell id="hH0oPLwTVgHCEB_EY1nH-16" value="keycloak.127.0.0.1.nip.io" style="text;html=1;align=center;verticalAlign=middle;whiteSpace=wrap;rounded=0;" parent="1" vertex="1">
          <mxGeometry x="290" y="500" width="60" height="30" as="geometry" />
        </mxCell>
        <mxCell id="hH0oPLwTVgHCEB_EY1nH-22" style="edgeStyle=orthogonalEdgeStyle;rounded=0;orthogonalLoop=1;jettySize=auto;html=1;exitX=0;exitY=0.5;exitDx=0;exitDy=0;endArrow=block;endFill=1;strokeColor=#00CC66;strokeWidth=5;opacity=90;entryX=0.5;entryY=0;entryDx=0;entryDy=0;entryPerimeter=0;" parent="1" source="hH0oPLwTVgHCEB_EY1nH-6" target="hH0oPLwTVgHCEB_EY1nH-2" edge="1">
          <mxGeometry relative="1" as="geometry">
            <mxPoint x="330" y="228" as="sourcePoint" />
            <mxPoint x="200" y="80" as="targetPoint" />
          </mxGeometry>
        </mxCell>
        <mxCell id="hH0oPLwTVgHCEB_EY1nH-24" style="edgeStyle=orthogonalEdgeStyle;rounded=0;orthogonalLoop=1;jettySize=auto;html=1;exitX=1;exitY=0.5;exitDx=0;exitDy=0;endArrow=block;endFill=1;strokeColor=#00CC66;strokeWidth=5;opacity=90;entryX=0.5;entryY=0;entryDx=0;entryDy=0;entryPerimeter=0;" parent="1" source="hH0oPLwTVgHCEB_EY1nH-6" target="hH0oPLwTVgHCEB_EY1nH-3" edge="1">
          <mxGeometry relative="1" as="geometry">
            <mxPoint x="755" y="300" as="sourcePoint" />
            <mxPoint x="600" y="360" as="targetPoint" />
          </mxGeometry>
        </mxCell>
        <mxCell id="hH0oPLwTVgHCEB_EY1nH-25" style="edgeStyle=orthogonalEdgeStyle;rounded=0;orthogonalLoop=1;jettySize=auto;html=1;exitX=0.5;exitY=1;exitDx=0;exitDy=0;endArrow=block;endFill=1;strokeColor=#00CC66;strokeWidth=5;opacity=90;entryX=0.5;entryY=0;entryDx=0;entryDy=0;exitPerimeter=0;" parent="1" source="hH0oPLwTVgHCEB_EY1nH-2" target="hH0oPLwTVgHCEB_EY1nH-8" edge="1">
          <mxGeometry relative="1" as="geometry">
            <mxPoint x="335" y="620" as="sourcePoint" />
            <mxPoint x="180" y="680" as="targetPoint" />
          </mxGeometry>
        </mxCell>
        <mxCell id="hH0oPLwTVgHCEB_EY1nH-26" style="edgeStyle=orthogonalEdgeStyle;rounded=0;orthogonalLoop=1;jettySize=auto;html=1;exitX=0.5;exitY=1;exitDx=0;exitDy=0;endArrow=block;endFill=1;strokeColor=#00CC66;strokeWidth=5;opacity=90;entryX=0.5;entryY=0;entryDx=0;entryDy=0;exitPerimeter=0;" parent="1" source="hH0oPLwTVgHCEB_EY1nH-3" target="hH0oPLwTVgHCEB_EY1nH-7" edge="1">
          <mxGeometry relative="1" as="geometry">
            <mxPoint x="540" y="650" as="sourcePoint" />
            <mxPoint x="385" y="710" as="targetPoint" />
          </mxGeometry>
        </mxCell>
        <mxCell id="hH0oPLwTVgHCEB_EY1nH-30" value="" style="endArrow=block;html=1;rounded=0;strokeWidth=5;endFill=1;strokeColor=#63C6FF;" parent="1" edge="1">
          <mxGeometry width="50" height="50" relative="1" as="geometry">
            <mxPoint x="470" y="476.28" as="sourcePoint" />
            <mxPoint x="330" y="476.28" as="targetPoint" />
          </mxGeometry>
        </mxCell>
        <mxCell id="hH0oPLwTVgHCEB_EY1nH-32" value="" style="shape=cross;whiteSpace=wrap;html=1;rotation=45;strokeColor=none;fillColor=#FF0000;size=0.11907678195181517;" parent="1" vertex="1">
          <mxGeometry x="278.25" y="441.7" width="70" height="70" as="geometry" />
        </mxCell>
        <mxCell id="hH0oPLwTVgHCEB_EY1nH-4" value="svc: traefik&lt;div&gt;(type=LoadBalancer)&lt;/div&gt;" style="aspect=fixed;sketch=0;html=1;dashed=0;whitespace=wrap;verticalLabelPosition=bottom;verticalAlign=top;fillColor=#2875E2;strokeColor=#ffffff;points=[[0.005,0.63,0],[0.1,0.2,0],[0.9,0.2,0],[0.5,0,0],[0.995,0.63,0],[0.72,0.99,0],[0.5,1,0],[0.28,0.99,0]];shape=mxgraph.kubernetes.icon2;prIcon=svc" parent="1" vertex="1">
          <mxGeometry x="295" y="170" width="50" height="48" as="geometry" />
        </mxCell>
        <mxCell id="hH0oPLwTVgHCEB_EY1nH-3" value="ing: dex-app.127.0.0.1.nip.io" style="aspect=fixed;sketch=0;html=1;dashed=0;whitespace=wrap;verticalLabelPosition=bottom;verticalAlign=top;fillColor=#2875E2;strokeColor=#ffffff;points=[[0.005,0.63,0],[0.1,0.2,0],[0.9,0.2,0],[0.5,0,0],[0.995,0.63,0],[0.72,0.99,0],[0.5,1,0],[0.28,0.99,0]];shape=mxgraph.kubernetes.icon2;prIcon=ing" parent="1" vertex="1">
          <mxGeometry x="480" y="350" width="50" height="48" as="geometry" />
        </mxCell>
        <mxCell id="hH0oPLwTVgHCEB_EY1nH-2" value="ing: keycloak.127.0.0.1.nip.io" style="aspect=fixed;sketch=0;html=1;dashed=0;whitespace=wrap;verticalLabelPosition=bottom;verticalAlign=top;fillColor=#2875E2;strokeColor=#ffffff;points=[[0.005,0.63,0],[0.1,0.2,0],[0.9,0.2,0],[0.5,0,0],[0.995,0.63,0],[0.72,0.99,0],[0.5,1,0],[0.28,0.99,0]];shape=mxgraph.kubernetes.icon2;prIcon=ing" parent="1" vertex="1">
          <mxGeometry x="110" y="350" width="50" height="48" as="geometry" />
        </mxCell>
        <mxCell id="hH0oPLwTVgHCEB_EY1nH-38" style="edgeStyle=orthogonalEdgeStyle;rounded=0;orthogonalLoop=1;jettySize=auto;html=1;exitX=0.5;exitY=1;exitDx=0;exitDy=0;entryX=0.5;entryY=0;entryDx=0;entryDy=0;endArrow=block;endFill=1;strokeColor=#00CC66;strokeWidth=5;opacity=90;entryPerimeter=0;" parent="1" target="hH0oPLwTVgHCEB_EY1nH-4" edge="1">
          <mxGeometry relative="1" as="geometry">
            <mxPoint x="320" y="120" as="sourcePoint" />
            <mxPoint x="330" y="181" as="targetPoint" />
          </mxGeometry>
        </mxCell>
        <mxCell id="hH0oPLwTVgHCEB_EY1nH-31" value="TLS" style="sketch=0;outlineConnect=0;fontColor=#232F3E;gradientColor=none;fillColor=#FF9933;strokeColor=none;dashed=0;verticalLabelPosition=bottom;verticalAlign=top;align=center;html=1;fontSize=12;fontStyle=0;aspect=fixed;pointerEvents=1;shape=mxgraph.aws4.shield2;" parent="1" vertex="1">
          <mxGeometry x="304" y="61" width="30" height="30" as="geometry" />
        </mxCell>
        <mxCell id="9oMCA77tK84Mi8cr7Skc-1" value="&lt;font color=&quot;#ff3333&quot; style=&quot;font-size: 40px;&quot;&gt;!&lt;/font&gt;" style="text;html=1;align=center;verticalAlign=middle;whiteSpace=wrap;rounded=0;" parent="1" vertex="1">
          <mxGeometry x="303" y="62" width="30" height="36.6" as="geometry" />
        </mxCell>
        <mxCell id="wNDSbZbn_YZjYyULintc-1" value="" style="shape=image;verticalLabelPosition=bottom;labelBackgroundColor=default;verticalAlign=top;aspect=fixed;imageAspect=0;image=data:image/svg+xml,PHN2ZyB4bWxuczp4bGluaz0iaHR0cDovL3d3dy53My5vcmcvMTk5OS94bGluayIgeG1sbnM9Imh0dHA6Ly93d3cudzMub3JnLzIwMDAvc3ZnIiB4bWw6c3BhY2U9InByZXNlcnZlIiB2aWV3Qm94PSIwIDAgNjQgNjQiIGlkPSJMYXllcl8xIiB2ZXJzaW9uPSIxLjEiIHdpZHRoPSI4MDBweCIgaGVpZ2h0PSI4MDBweCIgZmlsbD0iIzAwMDAwMCI+JiN4YTs8ZyBpZD0iQnJvd3Nlci13aW5kb3ctcmlnaHQiPiYjeGE7CTxwYXRoIGQ9Ik02MCw1aC01NmMtMi4yMDkxLDAtNCwxLjc5MDgwMDEtNCw0djV2MnYzOWMwLDIuMjA5MDk4OCwxLjc5MDksNCw0LDRoNTZjMi4yMDkyMDE4LDAsNC0xLjc5MDkwMTIsNC00VjE2di0yVjkmIzEwOyYjOTsmIzk7QzY0LDYuNzkwODAwMSw2Mi4yMDkyMDE4LDUsNjAsNXogTTYyLDU1YzAsMS4xMDI3OTg1LTAuODk3MjAxNSwyLTIsMmgtNTZjLTEuMTAyNywwLTItMC44OTcyMDE1LTItMlYxNmg2MFY1NXogTTIuMDAwMDAxOSwxNFY5JiMxMDsmIzk7JiM5O2MwLTEuMTAyNzk5OSwwLjg5NzMtMiwyLTJoNTZjMS4xMDI3OTg1LDAsMiwwLjg5NzIwMDEsMiwydjVIMi4wMDAwMDE5eiIvPiYjeGE7CTxwYXRoIGQ9Ik01OCw5Yy0wLjk2NDkwMSwwLTEuNzUsMC43ODQ5OTk4LTEuNzUsMS43NWMwLDAuOTY0OSwwLjc4NTA5OSwxLjc1LDEuNzUsMS43NWMwLjk2NTAwMDIsMCwxLjc1LTAuNzg1MSwxLjc1LTEuNzUmIzEwOyYjOTsmIzk7QzU5Ljc1LDkuNzg0OTk5OCw1OC45NjUwMDAyLDksNTgsOXogTTU4LDExLjVjLTAuNDE0MTk5OCwwLTAuNzUtMC4zMzU4MDAyLTAuNzUtMC43NVM1Ny41ODU4MDAyLDEwLDU4LDEwJiMxMDsmIzk7JiM5O2MwLjQxNDIwMzYsMCwwLjc1LDAuMzM1ODAwMiwwLjc1LDAuNzVTNTguNDE0MjAzNiwxMS41LDU4LDExLjV6Ii8+JiN4YTsJPHBhdGggZD0iTTQ4LDljLTAuOTY0OTAxLDAtMS43NSwwLjc4NDk5OTgtMS43NSwxLjc1YzAsMC45NjQ5LDAuNzg1MDk5LDEuNzUsMS43NSwxLjc1YzAuOTY1MDAwMiwwLDEuNzUtMC43ODUxLDEuNzUtMS43NSYjMTA7JiM5OyYjOTtDNDkuNzUsOS43ODQ5OTk4LDQ4Ljk2NTAwMDIsOSw0OCw5eiBNNDgsMTEuNWMtMC40MTQxOTk4LDAtMC43NS0wLjMzNTgwMDItMC43NS0wLjc1UzQ3LjU4NTgwMDIsMTAsNDgsMTAmIzEwOyYjOTsmIzk7YzAuNDE0MjAzNiwwLDAuNzUsMC4zMzU4MDAyLDAuNzUsMC43NVM0OC40MTQyMDM2LDExLjUsNDgsMTEuNXoiLz4mI3hhOwk8cGF0aCBkPSJNNTMsOWMtMC45NjQ5MDEsMC0xLjc1LDAuNzg0OTk5OC0xLjc1LDEuNzVjMCwwLjk2NDksMC43ODUwOTksMS43NSwxLjc1LDEuNzVjMC45NjUwMDAyLDAsMS43NS0wLjc4NTEsMS43NS0xLjc1JiMxMDsmIzk7JiM5O0M1NC43NSw5Ljc4NDk5OTgsNTMuOTY1MDAwMiw5LDUzLDl6IE01MywxMS41Yy0wLjQxNDE5OTgsMC0wLjc1LTAuMzM1ODAwMi0wLjc1LTAuNzVTNTIuNTg1ODAwMiwxMCw1MywxMCYjMTA7JiM5OyYjOTtjMC40MTQyMDM2LDAsMC43NSwwLjMzNTgwMDIsMC43NSwwLjc1UzUzLjQxNDIwMzYsMTEuNSw1MywxMS41eiIvPiYjeGE7PC9nPiYjeGE7PC9zdmc+;" parent="1" vertex="1">
          <mxGeometry x="277" y="39" width="84" height="84" as="geometry" />
        </mxCell>
        <mxCell id="hH0oPLwTVgHCEB_EY1nH-39" value="junk" parent="0" visible="0" />
        <mxCell id="hH0oPLwTVgHCEB_EY1nH-19" value="TLS" style="sketch=0;outlineConnect=0;fontColor=#232F3E;gradientColor=none;fillColor=#FFB570;strokeColor=none;dashed=0;verticalLabelPosition=bottom;verticalAlign=top;align=center;html=1;fontSize=12;fontStyle=0;aspect=fixed;pointerEvents=1;shape=mxgraph.aws4.shield2;" parent="hH0oPLwTVgHCEB_EY1nH-39" vertex="1">
          <mxGeometry x="680" y="30" width="40" height="40" as="geometry" />
        </mxCell>
        <mxCell id="hH0oPLwTVgHCEB_EY1nH-33" value="" style="shape=cross;whiteSpace=wrap;html=1;rotation=45;strokeColor=none;fillColor=#FF0000;size=0.11907678195181517;" parent="hH0oPLwTVgHCEB_EY1nH-39" vertex="1">
          <mxGeometry x="740" y="80" width="50" height="50" as="geometry" />
        </mxCell>
        <mxCell id="hH0oPLwTVgHCEB_EY1nH-37" style="edgeStyle=orthogonalEdgeStyle;rounded=0;orthogonalLoop=1;jettySize=auto;html=1;exitX=0;exitY=0.5;exitDx=0;exitDy=0;endArrow=block;endFill=1;strokeColor=#00CC66;strokeWidth=5;opacity=90;entryX=0.5;entryY=0;entryDx=0;entryDy=0;entryPerimeter=0;" parent="hH0oPLwTVgHCEB_EY1nH-39" edge="1">
          <mxGeometry relative="1" as="geometry">
            <mxPoint x="777.5" y="250" as="sourcePoint" />
            <mxPoint x="622.5" y="310" as="targetPoint" />
          </mxGeometry>
        </mxCell>
        <mxCell id="hH0oPLwTVgHCEB_EY1nH-23" style="edgeStyle=orthogonalEdgeStyle;rounded=0;orthogonalLoop=1;jettySize=auto;html=1;exitX=0;exitY=0.5;exitDx=0;exitDy=0;endArrow=block;endFill=1;strokeColor=#00CC66;strokeWidth=5;opacity=90;entryX=0.5;entryY=0;entryDx=0;entryDy=0;entryPerimeter=0;" parent="hH0oPLwTVgHCEB_EY1nH-39" edge="1">
          <mxGeometry relative="1" as="geometry">
            <mxPoint x="530" y="640" as="sourcePoint" />
            <mxPoint x="375" y="700" as="targetPoint" />
          </mxGeometry>
        </mxCell>
        <mxCell id="9oMCA77tK84Mi8cr7Skc-2" value="" style="shape=cross;whiteSpace=wrap;html=1;rotation=45;strokeColor=none;fillColor=#FF0000;size=0.06140043883303079;" parent="hH0oPLwTVgHCEB_EY1nH-39" vertex="1">
          <mxGeometry x="170" y="40" width="40" height="40" as="geometry" />
        </mxCell>
      </root>
    </mxGraphModel>
  </diagram>
  <diagram name="yay" id="k7X6PbVbWwz-GISDULNh">
    <mxGraphModel dx="917" dy="720" grid="1" gridSize="10" guides="1" tooltips="1" connect="1" arrows="1" fold="1" page="1" pageScale="1" pageWidth="827" pageHeight="1169" math="0" shadow="0">
      <root>
        <mxCell id="trScWWrK5CcB1Bqwu8R2-0" />
        <mxCell id="trScWWrK5CcB1Bqwu8R2-1" parent="trScWWrK5CcB1Bqwu8R2-0" />
        <mxCell id="trScWWrK5CcB1Bqwu8R2-2" value="" style="rounded=1;whiteSpace=wrap;html=1;arcSize=7;" vertex="1" parent="trScWWrK5CcB1Bqwu8R2-1">
          <mxGeometry x="40" y="160" width="560" height="390" as="geometry" />
        </mxCell>
        <mxCell id="trScWWrK5CcB1Bqwu8R2-3" style="edgeStyle=orthogonalEdgeStyle;rounded=0;orthogonalLoop=1;jettySize=auto;html=1;exitX=0.5;exitY=1;exitDx=0;exitDy=0;exitPerimeter=0;entryX=0.5;entryY=0;entryDx=0;entryDy=0;endArrow=block;endFill=1;strokeColor=#00CC66;strokeWidth=5;opacity=90;" edge="1" parent="trScWWrK5CcB1Bqwu8R2-1" source="trScWWrK5CcB1Bqwu8R2-16" target="trScWWrK5CcB1Bqwu8R2-4">
          <mxGeometry relative="1" as="geometry" />
        </mxCell>
        <mxCell id="trScWWrK5CcB1Bqwu8R2-5" value="dex sample app" style="shape=image;verticalLabelPosition=bottom;labelBackgroundColor=default;verticalAlign=top;aspect=fixed;imageAspect=0;image=https://dexidp.io/favicons/favicon.png;" vertex="1" parent="trScWWrK5CcB1Bqwu8R2-1">
          <mxGeometry x="474.99" y="447.6" width="60.01" height="58.4" as="geometry" />
        </mxCell>
        <mxCell id="trScWWrK5CcB1Bqwu8R2-6" value="keycloak" style="shape=image;verticalLabelPosition=bottom;labelBackgroundColor=default;verticalAlign=top;aspect=fixed;imageAspect=0;image=https://upload.wikimedia.org/wikipedia/commons/2/29/Keycloak_Logo.png;" vertex="1" parent="trScWWrK5CcB1Bqwu8R2-1">
          <mxGeometry x="107" y="450" width="56" height="56" as="geometry" />
        </mxCell>
        <mxCell id="trScWWrK5CcB1Bqwu8R2-7" value="" style="shape=image;verticalLabelPosition=bottom;labelBackgroundColor=default;verticalAlign=top;aspect=fixed;imageAspect=0;image=https://encrypted-tbn0.gstatic.com/images?q=tbn:ANd9GcTge6fN8aeHOQtq4LFhjwvb9ZB2e48eM55jcg&amp;s;" vertex="1" parent="trScWWrK5CcB1Bqwu8R2-1">
          <mxGeometry x="70" y="180" width="53.04" height="20" as="geometry" />
        </mxCell>
        <mxCell id="trScWWrK5CcB1Bqwu8R2-9" value="keycloak.cl0.k3d.local" style="text;html=1;align=center;verticalAlign=middle;whiteSpace=wrap;rounded=0;" vertex="1" parent="trScWWrK5CcB1Bqwu8R2-1">
          <mxGeometry x="320" y="480" width="60" height="30" as="geometry" />
        </mxCell>
        <mxCell id="trScWWrK5CcB1Bqwu8R2-10" style="edgeStyle=orthogonalEdgeStyle;rounded=0;orthogonalLoop=1;jettySize=auto;html=1;exitX=0;exitY=0.5;exitDx=0;exitDy=0;endArrow=block;endFill=1;strokeColor=#00CC66;strokeWidth=5;opacity=90;entryX=0.5;entryY=0;entryDx=0;entryDy=0;entryPerimeter=0;" edge="1" parent="trScWWrK5CcB1Bqwu8R2-1" source="trScWWrK5CcB1Bqwu8R2-4" target="trScWWrK5CcB1Bqwu8R2-18">
          <mxGeometry relative="1" as="geometry">
            <mxPoint x="330" y="228" as="sourcePoint" />
            <mxPoint x="200" y="80" as="targetPoint" />
          </mxGeometry>
        </mxCell>
        <mxCell id="trScWWrK5CcB1Bqwu8R2-11" style="edgeStyle=orthogonalEdgeStyle;rounded=0;orthogonalLoop=1;jettySize=auto;html=1;exitX=1;exitY=0.5;exitDx=0;exitDy=0;endArrow=block;endFill=1;strokeColor=#00CC66;strokeWidth=5;opacity=90;entryX=0.5;entryY=0;entryDx=0;entryDy=0;entryPerimeter=0;" edge="1" parent="trScWWrK5CcB1Bqwu8R2-1" source="trScWWrK5CcB1Bqwu8R2-4" target="trScWWrK5CcB1Bqwu8R2-17">
          <mxGeometry relative="1" as="geometry">
            <mxPoint x="755" y="300" as="sourcePoint" />
            <mxPoint x="600" y="360" as="targetPoint" />
          </mxGeometry>
        </mxCell>
        <mxCell id="trScWWrK5CcB1Bqwu8R2-12" style="edgeStyle=orthogonalEdgeStyle;rounded=0;orthogonalLoop=1;jettySize=auto;html=1;exitX=0.5;exitY=1;exitDx=0;exitDy=0;endArrow=block;endFill=1;strokeColor=#00CC66;strokeWidth=5;opacity=90;entryX=0.5;entryY=0;entryDx=0;entryDy=0;exitPerimeter=0;" edge="1" parent="trScWWrK5CcB1Bqwu8R2-1" source="trScWWrK5CcB1Bqwu8R2-18" target="trScWWrK5CcB1Bqwu8R2-6">
          <mxGeometry relative="1" as="geometry">
            <mxPoint x="335" y="620" as="sourcePoint" />
            <mxPoint x="180" y="680" as="targetPoint" />
          </mxGeometry>
        </mxCell>
        <mxCell id="trScWWrK5CcB1Bqwu8R2-13" style="edgeStyle=orthogonalEdgeStyle;rounded=0;orthogonalLoop=1;jettySize=auto;html=1;exitX=0.5;exitY=1;exitDx=0;exitDy=0;endArrow=block;endFill=1;strokeColor=#00CC66;strokeWidth=5;opacity=90;entryX=0.5;entryY=0;entryDx=0;entryDy=0;exitPerimeter=0;" edge="1" parent="trScWWrK5CcB1Bqwu8R2-1" source="trScWWrK5CcB1Bqwu8R2-17" target="trScWWrK5CcB1Bqwu8R2-5">
          <mxGeometry relative="1" as="geometry">
            <mxPoint x="540" y="650" as="sourcePoint" />
            <mxPoint x="385" y="710" as="targetPoint" />
          </mxGeometry>
        </mxCell>
        <mxCell id="trScWWrK5CcB1Bqwu8R2-16" value="svc: traefik&lt;div&gt;(type=LoadBalancer)&lt;/div&gt;" style="aspect=fixed;sketch=0;html=1;dashed=0;whitespace=wrap;verticalLabelPosition=bottom;verticalAlign=top;fillColor=#2875E2;strokeColor=#ffffff;points=[[0.005,0.63,0],[0.1,0.2,0],[0.9,0.2,0],[0.5,0,0],[0.995,0.63,0],[0.72,0.99,0],[0.5,1,0],[0.28,0.99,0]];shape=mxgraph.kubernetes.icon2;prIcon=svc" vertex="1" parent="trScWWrK5CcB1Bqwu8R2-1">
          <mxGeometry x="295" y="170" width="50" height="48" as="geometry" />
        </mxCell>
        <mxCell id="trScWWrK5CcB1Bqwu8R2-17" value="ing: dex-app.cl0.k3d.local" style="aspect=fixed;sketch=0;html=1;dashed=0;whitespace=wrap;verticalLabelPosition=bottom;verticalAlign=top;fillColor=#2875E2;strokeColor=#ffffff;points=[[0.005,0.63,0],[0.1,0.2,0],[0.9,0.2,0],[0.5,0,0],[0.995,0.63,0],[0.72,0.99,0],[0.5,1,0],[0.28,0.99,0]];shape=mxgraph.kubernetes.icon2;prIcon=ing" vertex="1" parent="trScWWrK5CcB1Bqwu8R2-1">
          <mxGeometry x="480" y="350" width="50" height="48" as="geometry" />
        </mxCell>
        <mxCell id="trScWWrK5CcB1Bqwu8R2-18" value="ing: keycloak.cl0.k3d.local" style="aspect=fixed;sketch=0;html=1;dashed=0;whitespace=wrap;verticalLabelPosition=bottom;verticalAlign=top;fillColor=#2875E2;strokeColor=#ffffff;points=[[0.005,0.63,0],[0.1,0.2,0],[0.9,0.2,0],[0.5,0,0],[0.995,0.63,0],[0.72,0.99,0],[0.5,1,0],[0.28,0.99,0]];shape=mxgraph.kubernetes.icon2;prIcon=ing" vertex="1" parent="trScWWrK5CcB1Bqwu8R2-1">
          <mxGeometry x="110" y="350" width="50" height="48" as="geometry" />
        </mxCell>
        <mxCell id="trScWWrK5CcB1Bqwu8R2-19" style="edgeStyle=orthogonalEdgeStyle;rounded=0;orthogonalLoop=1;jettySize=auto;html=1;exitX=0.5;exitY=1;exitDx=0;exitDy=0;entryX=0.5;entryY=0;entryDx=0;entryDy=0;endArrow=block;endFill=1;strokeColor=#00CC66;strokeWidth=5;opacity=90;entryPerimeter=0;" edge="1" parent="trScWWrK5CcB1Bqwu8R2-1" target="trScWWrK5CcB1Bqwu8R2-16">
          <mxGeometry relative="1" as="geometry">
            <mxPoint x="320" y="120" as="sourcePoint" />
            <mxPoint x="330" y="181" as="targetPoint" />
          </mxGeometry>
        </mxCell>
        <mxCell id="pNOdmtsp9dzW71z2Zs4q-2" style="edgeStyle=orthogonalEdgeStyle;rounded=0;orthogonalLoop=1;jettySize=auto;html=1;endArrow=block;endFill=1;strokeColor=#63C6FF;strokeWidth=5;opacity=90;exitX=0;exitY=0.5;exitDx=0;exitDy=0;" edge="1" parent="trScWWrK5CcB1Bqwu8R2-1" source="trScWWrK5CcB1Bqwu8R2-5" target="pNOdmtsp9dzW71z2Zs4q-1">
          <mxGeometry relative="1" as="geometry">
            <mxPoint x="400" y="620" as="sourcePoint" />
            <mxPoint x="225" y="645" as="targetPoint" />
          </mxGeometry>
        </mxCell>
        <mxCell id="OW7oc27mci2Mww53jUPL-0" value="" style="endArrow=block;html=1;rounded=0;strokeWidth=5;endFill=1;strokeColor=#63C6FF;exitX=0.5;exitY=0;exitDx=0;exitDy=0;exitPerimeter=0;entryX=0.5;entryY=1;entryDx=0;entryDy=0;" edge="1" parent="trScWWrK5CcB1Bqwu8R2-1" source="pNOdmtsp9dzW71z2Zs4q-1" target="trScWWrK5CcB1Bqwu8R2-4">
          <mxGeometry width="50" height="50" relative="1" as="geometry">
            <mxPoint x="600" y="590" as="sourcePoint" />
            <mxPoint x="460" y="590" as="targetPoint" />
          </mxGeometry>
        </mxCell>
        <mxCell id="trScWWrK5CcB1Bqwu8R2-4" value="Traefik" style="shape=image;verticalLabelPosition=bottom;labelBackgroundColor=none;verticalAlign=top;aspect=fixed;imageAspect=0;image=https://encrypted-tbn0.gstatic.com/images?q=tbn:ANd9GcR5TgvfyQXTfJo_XdQc6eP0GLWYev0JaMrhAQ&amp;s;" vertex="1" parent="trScWWrK5CcB1Bqwu8R2-1">
          <mxGeometry x="290" y="260" width="60" height="60" as="geometry" />
        </mxCell>
        <mxCell id="pNOdmtsp9dzW71z2Zs4q-1" value="svc: traefik-internal&lt;div&gt;(type=ClusterIP)&lt;/div&gt;" style="aspect=fixed;sketch=0;html=1;dashed=0;whitespace=wrap;verticalLabelPosition=bottom;verticalAlign=top;fillColor=#2875E2;strokeColor=#ffffff;points=[[0.005,0.63,0],[0.1,0.2,0],[0.9,0.2,0],[0.5,0,0],[0.995,0.63,0],[0.72,0.99,0],[0.5,1,0],[0.28,0.99,0]];shape=mxgraph.kubernetes.icon2;prIcon=svc" vertex="1" parent="trScWWrK5CcB1Bqwu8R2-1">
          <mxGeometry x="295" y="350" width="50" height="48" as="geometry" />
        </mxCell>
        <mxCell id="trScWWrK5CcB1Bqwu8R2-21" value="TLS" style="sketch=0;outlineConnect=0;fontColor=#232F3E;gradientColor=none;fillColor=#00CC00;strokeColor=none;dashed=0;verticalLabelPosition=bottom;verticalAlign=top;align=center;html=1;fontSize=12;fontStyle=0;aspect=fixed;pointerEvents=1;shape=mxgraph.aws4.shield2;" vertex="1" parent="trScWWrK5CcB1Bqwu8R2-1">
          <mxGeometry x="304" y="61" width="30" height="30" as="geometry" />
        </mxCell>
        <mxCell id="cjsx2Cd56RxMltEdf4p1-3" value="" style="shape=image;verticalLabelPosition=bottom;labelBackgroundColor=default;verticalAlign=top;aspect=fixed;imageAspect=0;image=data:image/svg+xml,PHN2ZyB4bWxuczp4bGluaz0iaHR0cDovL3d3dy53My5vcmcvMTk5OS94bGluayIgeG1sbnM9Imh0dHA6Ly93d3cudzMub3JnLzIwMDAvc3ZnIiB4bWw6c3BhY2U9InByZXNlcnZlIiB2aWV3Qm94PSIwIDAgNjQgNjQiIGlkPSJMYXllcl8xIiB2ZXJzaW9uPSIxLjEiIHdpZHRoPSI4MDBweCIgaGVpZ2h0PSI4MDBweCIgZmlsbD0iIzAwMDAwMCI+JiN4YTs8ZyBpZD0iQnJvd3Nlci13aW5kb3ctcmlnaHQiPiYjeGE7CTxwYXRoIGQ9Ik02MCw1aC01NmMtMi4yMDkxLDAtNCwxLjc5MDgwMDEtNCw0djV2MnYzOWMwLDIuMjA5MDk4OCwxLjc5MDksNCw0LDRoNTZjMi4yMDkyMDE4LDAsNC0xLjc5MDkwMTIsNC00VjE2di0yVjkmIzEwOyYjOTsmIzk7QzY0LDYuNzkwODAwMSw2Mi4yMDkyMDE4LDUsNjAsNXogTTYyLDU1YzAsMS4xMDI3OTg1LTAuODk3MjAxNSwyLTIsMmgtNTZjLTEuMTAyNywwLTItMC44OTcyMDE1LTItMlYxNmg2MFY1NXogTTIuMDAwMDAxOSwxNFY5JiMxMDsmIzk7JiM5O2MwLTEuMTAyNzk5OSwwLjg5NzMtMiwyLTJoNTZjMS4xMDI3OTg1LDAsMiwwLjg5NzIwMDEsMiwydjVIMi4wMDAwMDE5eiIvPiYjeGE7CTxwYXRoIGQ9Ik01OCw5Yy0wLjk2NDkwMSwwLTEuNzUsMC43ODQ5OTk4LTEuNzUsMS43NWMwLDAuOTY0OSwwLjc4NTA5OSwxLjc1LDEuNzUsMS43NWMwLjk2NTAwMDIsMCwxLjc1LTAuNzg1MSwxLjc1LTEuNzUmIzEwOyYjOTsmIzk7QzU5Ljc1LDkuNzg0OTk5OCw1OC45NjUwMDAyLDksNTgsOXogTTU4LDExLjVjLTAuNDE0MTk5OCwwLTAuNzUtMC4zMzU4MDAyLTAuNzUtMC43NVM1Ny41ODU4MDAyLDEwLDU4LDEwJiMxMDsmIzk7JiM5O2MwLjQxNDIwMzYsMCwwLjc1LDAuMzM1ODAwMiwwLjc1LDAuNzVTNTguNDE0MjAzNiwxMS41LDU4LDExLjV6Ii8+JiN4YTsJPHBhdGggZD0iTTQ4LDljLTAuOTY0OTAxLDAtMS43NSwwLjc4NDk5OTgtMS43NSwxLjc1YzAsMC45NjQ5LDAuNzg1MDk5LDEuNzUsMS43NSwxLjc1YzAuOTY1MDAwMiwwLDEuNzUtMC43ODUxLDEuNzUtMS43NSYjMTA7JiM5OyYjOTtDNDkuNzUsOS43ODQ5OTk4LDQ4Ljk2NTAwMDIsOSw0OCw5eiBNNDgsMTEuNWMtMC40MTQxOTk4LDAtMC43NS0wLjMzNTgwMDItMC43NS0wLjc1UzQ3LjU4NTgwMDIsMTAsNDgsMTAmIzEwOyYjOTsmIzk7YzAuNDE0MjAzNiwwLDAuNzUsMC4zMzU4MDAyLDAuNzUsMC43NVM0OC40MTQyMDM2LDExLjUsNDgsMTEuNXoiLz4mI3hhOwk8cGF0aCBkPSJNNTMsOWMtMC45NjQ5MDEsMC0xLjc1LDAuNzg0OTk5OC0xLjc1LDEuNzVjMCwwLjk2NDksMC43ODUwOTksMS43NSwxLjc1LDEuNzVjMC45NjUwMDAyLDAsMS43NS0wLjc4NTEsMS43NS0xLjc1JiMxMDsmIzk7JiM5O0M1NC43NSw5Ljc4NDk5OTgsNTMuOTY1MDAwMiw5LDUzLDl6IE01MywxMS41Yy0wLjQxNDE5OTgsMC0wLjc1LTAuMzM1ODAwMi0wLjc1LTAuNzVTNTIuNTg1ODAwMiwxMCw1MywxMCYjMTA7JiM5OyYjOTtjMC40MTQyMDM2LDAsMC43NSwwLjMzNTgwMDIsMC43NSwwLjc1UzUzLjQxNDIwMzYsMTEuNSw1MywxMS41eiIvPiYjeGE7PC9nPiYjeGE7PC9zdmc+;" vertex="1" parent="trScWWrK5CcB1Bqwu8R2-1">
          <mxGeometry x="277" y="39" width="84" height="84" as="geometry" />
        </mxCell>
        <mxCell id="trScWWrK5CcB1Bqwu8R2-24" value="junk" visible="0" parent="trScWWrK5CcB1Bqwu8R2-0" />
        <mxCell id="trScWWrK5CcB1Bqwu8R2-25" value="TLS" style="sketch=0;outlineConnect=0;fontColor=#232F3E;gradientColor=none;fillColor=#FFB570;strokeColor=none;dashed=0;verticalLabelPosition=bottom;verticalAlign=top;align=center;html=1;fontSize=12;fontStyle=0;aspect=fixed;pointerEvents=1;shape=mxgraph.aws4.shield2;" vertex="1" parent="trScWWrK5CcB1Bqwu8R2-24">
          <mxGeometry x="680" y="30" width="40" height="40" as="geometry" />
        </mxCell>
        <mxCell id="trScWWrK5CcB1Bqwu8R2-26" value="" style="shape=cross;whiteSpace=wrap;html=1;rotation=45;strokeColor=none;fillColor=#FF0000;size=0.11907678195181517;" vertex="1" parent="trScWWrK5CcB1Bqwu8R2-24">
          <mxGeometry x="740" y="80" width="50" height="50" as="geometry" />
        </mxCell>
        <mxCell id="trScWWrK5CcB1Bqwu8R2-27" style="edgeStyle=orthogonalEdgeStyle;rounded=0;orthogonalLoop=1;jettySize=auto;html=1;exitX=0;exitY=0.5;exitDx=0;exitDy=0;endArrow=block;endFill=1;strokeColor=#00CC66;strokeWidth=5;opacity=90;entryX=0.5;entryY=0;entryDx=0;entryDy=0;entryPerimeter=0;" edge="1" parent="trScWWrK5CcB1Bqwu8R2-24">
          <mxGeometry relative="1" as="geometry">
            <mxPoint x="777.5" y="250" as="sourcePoint" />
            <mxPoint x="622.5" y="310" as="targetPoint" />
          </mxGeometry>
        </mxCell>
        <mxCell id="trScWWrK5CcB1Bqwu8R2-28" style="edgeStyle=orthogonalEdgeStyle;rounded=0;orthogonalLoop=1;jettySize=auto;html=1;exitX=0;exitY=0.5;exitDx=0;exitDy=0;endArrow=block;endFill=1;strokeColor=#00CC66;strokeWidth=5;opacity=90;entryX=0.5;entryY=0;entryDx=0;entryDy=0;entryPerimeter=0;" edge="1" parent="trScWWrK5CcB1Bqwu8R2-24">
          <mxGeometry relative="1" as="geometry">
            <mxPoint x="530" y="640" as="sourcePoint" />
            <mxPoint x="375" y="700" as="targetPoint" />
          </mxGeometry>
        </mxCell>
        <mxCell id="trScWWrK5CcB1Bqwu8R2-29" value="" style="shape=cross;whiteSpace=wrap;html=1;rotation=45;strokeColor=none;fillColor=#FF0000;size=0.06140043883303079;" vertex="1" parent="trScWWrK5CcB1Bqwu8R2-24">
          <mxGeometry x="170" y="40" width="40" height="40" as="geometry" />
        </mxCell>
      </root>
    </mxGraphModel>
  </diagram>
</mxfile>
